<svg width="27" height="27" viewBox="-3 0 27 27" fill="none" xmlns="http://www.w3.org/2000/svg">
<path d="M3.80713 26.9868C2.56429 26.9868 1.61719 26.6649 0.96582 26.021C0.32194 25.3846 0 24.4487 0 23.2134V10.5229C0 9.2876 0.32194 8.35173 0.96582 7.71533C1.61719 7.07145 2.56429 6.74951 3.80713 6.74951H16.4302C17.673 6.74951 18.6164 7.07145 19.2603 7.71533C19.9116 8.35173 20.2373 9.2876 20.2373 10.5229V23.2134C20.2373 24.4412 19.9229 25.3771 19.2939 26.021C18.6725 26.6649 17.8003 26.9868 16.6772 26.9868H3.80713ZM2.50439 4.98633C2.57926 4.43229 2.77018 4.00179 3.07715 3.69482C3.3916 3.38786 3.86328 3.23438 4.49219 3.23438H15.5991C16.2355 3.23438 16.7072 3.38786 17.0142 3.69482C17.3286 4.00179 17.5233 4.43229 17.5981 4.98633H2.50439ZM4.41357 1.61719C4.4585 1.0931 4.63444 0.692546 4.94141 0.415527C5.25586 0.138509 5.69385 0 6.25537 0H13.8472C14.4087 0 14.8429 0.138509 15.1499 0.415527C15.4644 0.692546 15.644 1.0931 15.689 1.61719H4.41357Z" fill="#8E8E93"/>
</svg>
