<?xml version="1.0" encoding="UTF-8"?>
<svg width="373px" height="372px" viewBox="0 0 373 372" version="1.1" xmlns="http://www.w3.org/2000/svg" xmlns:xlink="http://www.w3.org/1999/xlink">
    <title>Group</title>
    <g id="Page-1" stroke="none" stroke-width="1" fill="none" fill-rule="evenodd">
        <g id="Group" fill="#FD415E">
            <path d="M0,200.5745 C42.26,273.0095 99.127,330.5595 171.13,372.0005 L21.958,372.0005 C9.827,372.0005 0,362.1665 0,350.0435 L0,200.5745 Z" id="Fill-4"></path>
            <path d="M0,21.891 C0,9.798 9.797,0 21.883,0 L96.421,0 L372.053,275.268 L372.053,349.261 C372.053,355.293 369.66,361.074 365.395,365.341 C361.13,369.601 355.352,372.001 349.32,372.001 L275.312,372.001 L0,96.733" id="Fill-6"></path>
            <path d="M200.9609,0.0004 L350.0659,0.0004 C355.8959,0.0004 361.4879,2.3184 365.6109,6.4384 C369.7419,10.5654 372.0529,16.1614 372.0529,21.9944 L372.0529,171.2124 C329.6509,100.6384 273.0829,42.9844 200.9609,0.0004" id="Fill-8"></path>
        </g>
    </g>
</svg>